<svg width="19" height="11" viewBox="0 0 19 11" fill="none" xmlns="http://www.w3.org/2000/svg">
<path d="M17.2657 0.528786C17.3504 0.443331 17.4658 0.395264 17.5861 0.395264C17.7064 0.395264 17.8218 0.443331 17.9065 0.528786L18.8632 1.48575C18.9505 1.56766 19 1.68203 19 1.80172C19 1.92142 18.9505 2.03579 18.8632 2.1177L10.5686 10.4144C10.4417 10.5414 10.2697 10.6128 10.0902 10.613L9.85552 10.613C9.67604 10.6128 9.50398 10.5414 9.37715 10.4144L1.08246 2.1177C0.995199 2.03579 0.945702 1.92142 0.945702 1.80172C0.945702 1.68203 0.995199 1.56766 1.08246 1.48575L2.03919 0.528785C2.12393 0.44333 2.23928 0.395263 2.35961 0.395263C2.47994 0.395263 2.59529 0.44333 2.68002 0.528785L9.97285 7.82336L17.2657 0.528786Z" fill="black"/>
</svg>
