<svg width="75" height="33" viewBox="0 0 75 33" fill="none" xmlns="http://www.w3.org/2000/svg">
<path fill-rule="evenodd" clip-rule="evenodd" d="M19.3424 0.600607C18.6995 0.603072 18.18 1.09938 18.1826 1.70856V4.65092C18.181 4.94367 18.3027 5.2251 18.5201 5.4326C18.738 5.64058 19.0335 5.75788 19.3424 5.75887C19.6529 5.76035 19.9509 5.64403 20.1704 5.43555C20.3899 5.22756 20.5126 4.94515 20.5116 4.6509V2.80814H52.4443V25.8398H35.5705C35.0432 23.2207 32.6434 21.2118 29.7631 21.2118C26.8827 21.2118 24.4907 23.2207 23.9649 25.8398H19.3427C18.703 25.8422 18.185 26.3331 18.1829 26.9394C18.1813 27.2321 18.303 27.5131 18.5204 27.721C18.7384 27.9285 19.0338 28.0458 19.3427 28.0473H23.9717C24.5137 30.6467 26.8973 32.6343 29.7631 32.6343C32.6288 32.6343 35.0197 30.6466 35.5638 28.0473H57.7074C58.2509 30.6467 60.6424 32.6343 63.5076 32.6343C66.3733 32.6343 68.7622 30.6466 69.3057 28.0473H73.4027C74.046 28.0448 74.5656 27.5485 74.563 26.9394V16.1117C74.5635 15.9081 74.5042 15.708 74.3924 15.5341L68.0982 5.94641C67.8865 5.6226 67.5131 5.42545 67.111 5.42447H54.7731V1.70829C54.7757 1.09912 54.2561 0.602802 53.6132 0.600342L19.3424 0.600607ZM54.7728 7.63186H66.4554L72.2333 16.4309V25.8401H69.315C68.7881 23.221 66.3884 21.2121 63.5081 21.2121C60.6277 21.2121 58.228 23.221 57.7006 25.8401H54.7729L54.7728 7.63186ZM15.9818 8.63483C15.6733 8.63335 15.3764 8.74868 15.1569 8.95471C14.9379 9.16121 14.8141 9.44116 14.8126 9.73392C14.8141 10.0267 14.9379 10.3071 15.1569 10.5131C15.3764 10.7192 15.6733 10.8345 15.9818 10.8335H27.5874C27.8963 10.8345 28.1933 10.7192 28.4123 10.5131C28.6318 10.3071 28.7555 10.0267 28.7566 9.73392C28.7555 9.44116 28.6318 9.16121 28.4123 8.95471C28.1933 8.74869 27.8963 8.63335 27.5874 8.63483H15.9818ZM8.5708 14.7434C7.92951 14.7449 7.40992 15.2372 7.40888 15.8449C7.40732 16.1382 7.52954 16.4196 7.74747 16.6276C7.96539 16.8351 8.26186 16.9524 8.5708 16.9529H23.8827C24.1932 16.9539 24.4912 16.8376 24.7107 16.6296C24.9302 16.4216 25.0529 16.1392 25.0519 15.8449C25.0514 15.5517 24.9276 15.2712 24.7081 15.0642C24.4892 14.8577 24.1917 14.7424 23.8827 14.7434L8.5708 14.7434ZM1.16037 20.8544C0.851428 20.8554 0.555483 20.9732 0.33808 21.1807C0.120159 21.3887 -0.00103193 21.6696 6.62014e-06 21.9624C0.00260711 22.5686 0.520638 23.0595 1.16036 23.062H20.1764C20.4854 23.063 20.7823 22.9476 21.0013 22.7416C21.2208 22.5356 21.3446 22.2551 21.3456 21.9624C21.3472 21.6681 21.2239 21.3857 21.0044 21.1777C20.7849 20.9698 20.4869 20.8534 20.1764 20.8544L1.16037 20.8544ZM29.6711 23.4134C29.7018 23.4124 29.7315 23.4134 29.7622 23.4134C31.7391 23.4134 33.3473 24.9615 33.3473 26.9245C33.3473 28.8875 31.7397 30.4273 29.7622 30.4273C27.7852 30.4273 26.1865 28.8876 26.1865 26.9245C26.1865 24.992 27.737 23.4607 29.6712 23.4134H29.6711ZM63.4146 23.4134C63.4453 23.4124 63.477 23.4134 63.5077 23.4134C65.4846 23.4134 67.0928 24.9615 67.0928 26.9245C67.0928 28.8875 65.4852 30.4273 63.5077 30.4273C61.5307 30.4273 59.9226 28.8876 59.9226 26.9245C59.9226 24.992 61.4797 23.4607 63.4141 23.4134H63.4146Z" fill="#589195"/>
</svg>
