<svg width="50" height="36" viewBox="0 0 50 36" fill="none" xmlns="http://www.w3.org/2000/svg">
<path d="M48.9404 18.5241C48.3686 18.5241 47.9049 18.9605 47.9049 19.4987V30.5892C47.9039 31.3645 47.5762 32.1077 46.9941 32.6559C46.4116 33.2037 45.6219 33.5121 44.798 33.513H5.44554C4.62169 33.5121 3.83203 33.2037 3.24949 32.6559C2.66743 32.1077 2.33965 31.3646 2.33873 30.5892V17.9198H32.2679C32.8398 17.9198 33.3035 17.4834 33.3035 16.9452C33.3035 16.407 32.8398 15.9706 32.2679 15.9706H2.33873V14.0215H30.6003C31.1722 14.0215 31.6359 13.5851 31.6359 13.0469C31.6359 12.5087 31.1722 12.0723 30.6003 12.0723H2.33873V11.0978C2.33965 10.3225 2.66743 9.57932 3.24949 9.0311C3.83202 8.48334 4.62168 8.17487 5.44554 8.174H30.2998C30.8716 8.174 31.3353 7.73762 31.3353 7.19943C31.3353 6.66124 30.8716 6.22485 30.2998 6.22485H5.44554C4.07288 6.22616 2.75667 6.74042 1.78582 7.65364C0.815413 8.5673 0.268998 9.80594 0.267578 11.0977V30.5892C0.268965 31.881 0.815425 33.1196 1.78582 34.0333C2.75668 34.9465 4.07288 35.4607 5.44554 35.4621H44.798C46.1707 35.4608 47.4869 34.9465 48.4578 34.0333C49.4282 33.1196 49.9746 31.881 49.976 30.5892V19.4987C49.976 19.2402 49.8669 18.9922 49.6727 18.8095C49.4785 18.6268 49.215 18.5241 48.9404 18.5241L48.9404 18.5241Z" fill="#589195"/>
<path d="M9.58763 23.7671H5.44526C4.87338 23.7671 4.40967 24.2035 4.40967 24.7417C4.40967 25.2799 4.87338 25.7162 5.44526 25.7162H9.58763C10.1595 25.7162 10.6232 25.2799 10.6232 24.7417C10.6232 24.2035 10.1595 23.7671 9.58763 23.7671Z" fill="#589195"/>
<path d="M9.58763 28.6399H5.44526C4.87338 28.6399 4.40967 29.0763 4.40967 29.6145C4.40967 30.1527 4.87338 30.589 5.44526 30.589H9.58763C10.1595 30.589 10.6232 30.1527 10.6232 29.6145C10.6232 29.0763 10.1595 28.6399 9.58763 28.6399Z" fill="#589195"/>
<path d="M13.7304 28.6399C13.1585 28.6399 12.6948 29.0763 12.6948 29.6145C12.6948 30.1527 13.1585 30.589 13.7304 30.589H17.8728C18.4447 30.589 18.9084 30.1527 18.9084 29.6145C18.9084 29.0763 18.4447 28.6399 17.8728 28.6399H13.7304Z" fill="#589195"/>
<path d="M32.4525 28.455C32.7225 29.6841 33.6046 30.7157 34.8228 31.2274C36.0405 31.739 37.446 31.6677 38.5985 31.0359C38.9097 30.8645 39.2957 30.8649 39.6068 31.0368C40.2365 31.3836 40.9531 31.5659 41.6831 31.5641C41.9448 31.5641 42.206 31.5419 42.4635 31.4976C43.2721 31.3575 44.0169 30.9929 44.6031 30.4503C45.1888 29.9082 45.5888 29.213 45.7515 28.4551V28.4542C45.9678 27.46 45.7644 26.4254 45.1842 25.57C44.604 24.7142 43.6924 24.1051 42.6428 23.8719C41.5929 23.6383 40.488 23.7988 39.562 24.3192C39.2786 24.4771 38.9263 24.4771 38.6429 24.3192C37.7169 23.7975 36.611 23.6365 35.5606 23.8697C34.5107 24.1029 33.5981 24.7125 33.0179 25.5687C32.4377 26.425 32.2347 27.4604 32.4525 28.455L32.4525 28.455ZM34.9111 26.4271V26.4267C35.2324 26.0743 35.6739 25.8376 36.1603 25.758C36.6462 25.6784 37.1469 25.7602 37.5759 25.9899C38.0369 26.2505 38.5648 26.3884 39.1025 26.3884C39.6401 26.3884 40.1681 26.2505 40.629 25.9899C41.058 25.7606 41.5582 25.6788 42.0441 25.7588C42.53 25.8385 42.9715 26.0747 43.2929 26.4267C43.7076 26.9014 43.8606 27.5327 43.7053 28.1296C43.5499 28.7269 43.1047 29.2199 42.5037 29.4609C41.9027 29.7015 41.2162 29.6619 40.6513 29.3534C40.1811 29.0954 39.6467 28.9593 39.1025 28.9593C38.5584 28.9593 38.0239 29.0946 37.5537 29.3521C36.9888 29.661 36.3027 29.7015 35.7013 29.4609C35.1003 29.2203 34.655 28.7274 34.4993 28.13C34.3439 27.5331 34.4965 26.9023 34.9112 26.4271L34.9111 26.4271Z" fill="#589195"/>
<path d="M48.0932 2.87319L42.9162 0.785263V0.784828C42.1344 0.471138 41.25 0.471138 40.4677 0.784828L35.2888 2.87276V2.87319C34.7298 3.09812 34.2537 3.47316 33.9194 3.95045C33.5847 4.42816 33.4063 4.98767 33.4067 5.55977V10.4061C33.4137 12.4997 34.1418 14.535 35.4816 16.2066C36.8214 17.8782 38.7007 19.0959 40.838 19.6781C41.396 19.8277 41.9869 19.8277 42.5449 19.6781C44.6823 19.0959 46.5616 17.8782 47.9014 16.2066C49.2411 14.535 49.9694 12.4997 49.9762 10.4061V5.55977C49.9767 4.98765 49.7982 4.42815 49.4635 3.95045C49.1288 3.47273 48.6521 3.09813 48.0932 2.87319ZM47.9051 10.4061C47.8995 12.0764 47.3188 13.7001 46.25 15.0336C45.1812 16.3672 43.6819 17.3391 41.9769 17.8029C41.7905 17.8542 41.5927 17.8542 41.4064 17.8029C39.7014 17.3391 38.2021 16.3671 37.1332 15.0336C36.0644 13.7002 35.4836 12.0764 35.4781 10.4061V5.55979C35.4781 5.17039 35.7246 4.81797 36.1051 4.66439L41.284 2.57646V2.57603C41.5452 2.47204 41.8397 2.47204 42.1004 2.57603L47.2774 4.66396V4.66439C47.6579 4.81754 47.9053 5.16996 47.9053 5.55979L47.9051 10.4061Z" fill="#589195"/>
</svg>
