<svg width="46" height="56" viewBox="0 0 46 56" fill="none" xmlns="http://www.w3.org/2000/svg">
<path d="M15.3274 35.2469L9.17629 32.6095C8.85948 32.4746 8.49444 32.4994 8.20131 32.6759C7.90955 32.8524 7.7334 33.1561 7.7334 33.4825V38.7585C7.7334 39.1346 7.96645 39.476 8.33058 39.6319L14.4817 42.2688C14.616 42.3266 14.7603 42.3549 14.9041 42.3549C15.0971 42.3549 15.2883 42.3035 15.4558 42.202C15.7476 42.0255 15.9237 41.7218 15.9237 41.3954V36.1199C15.9237 35.7446 15.6907 35.4028 15.3274 35.2469V35.2469ZM13.8845 39.9044L9.77254 38.1413V34.9745L13.8845 36.7376V39.9044Z" fill="#589195"/>
<path d="M38.1956 32.6764C37.9029 32.4987 37.5374 32.4743 37.2206 32.61L31.0694 35.2474C30.7062 35.4033 30.4731 35.7452 30.4731 36.1208V41.3964C30.4731 41.7228 30.6493 42.0265 30.9411 42.2029C31.1086 42.304 31.2997 42.3559 31.4927 42.3559C31.6361 42.3559 31.7804 42.3272 31.9151 42.2698L38.0663 39.6328C38.4309 39.4769 38.6635 39.1359 38.6635 38.7594V33.483C38.6635 33.1566 38.4873 32.8529 38.1956 32.6764V32.6764ZM36.6244 38.1413L32.5124 39.9044V36.7376L36.6244 34.9745V38.1413Z" fill="#589195"/>
<path d="M45.5586 21.2182C45.5463 21.1874 45.5313 21.16 45.5158 21.1304C45.4758 21.0546 45.4266 20.986 45.367 20.9222C45.3465 20.9008 45.3301 20.8777 45.3078 20.858C45.2272 20.7864 45.1376 20.723 45.0329 20.6785L45.0079 20.6678H45.0074L34.4147 16.1273V10.4547C34.4147 4.89943 29.6127 0.379883 23.7091 0.379883C17.8056 0.379883 13.0035 4.89943 13.0035 10.4547V14.7725H9.94476C9.51781 14.7725 9.13638 15.0226 8.98891 15.3987C8.84052 15.7752 8.95704 16.1989 9.28158 16.4602L9.94932 16.9986L1.36619 20.6782C1.2615 20.7227 1.17183 20.7861 1.09126 20.8577C1.06896 20.8774 1.05212 20.9005 1.03164 20.9223C0.97201 20.9857 0.922397 21.0547 0.882802 21.1305C0.867327 21.1596 0.852306 21.1871 0.840016 21.2179C0.79814 21.3241 0.768555 21.4347 0.768555 21.552V45.4147C0.768555 45.7908 1.0016 46.1322 1.36574 46.2881L22.7769 55.4663C22.792 55.4727 22.8083 55.4702 22.8234 55.4757C22.9435 55.5211 23.0687 55.5528 23.1998 55.5528C23.2025 55.5528 23.2053 55.5511 23.2084 55.5511C23.3336 55.5498 23.4551 55.5203 23.5726 55.4762C23.5885 55.4702 23.6054 55.4727 23.6213 55.4663L45.0325 46.2881C45.3971 46.1317 45.6301 45.7907 45.6301 45.4142V21.5527C45.6301 21.4353 45.6005 21.3248 45.5587 21.219L45.5586 21.2182ZM14.0227 16.6914C14.5862 16.6914 15.0423 16.2618 15.0423 15.7319V10.4546C15.0423 5.95735 18.9303 2.29884 23.7087 2.29884C28.4871 2.29884 32.3751 5.95735 32.3751 10.4546V19.5699H28.2968V10.4546C28.2968 8.07386 26.2385 6.13686 23.7087 6.13686C21.1788 6.13686 19.1206 8.07386 19.1206 10.4546V15.7319C19.1206 16.2618 19.5767 16.6914 20.1402 16.6914H21.4625L17.0814 20.2254L12.9343 16.8799C12.923 16.8478 12.9257 16.8148 12.9107 16.7836C12.8934 16.7476 12.8611 16.7244 12.8397 16.6915L14.0227 16.6914ZM11.6558 18.3757L16.4183 22.2171C16.6085 22.3717 16.8457 22.4484 17.0815 22.4484C17.3172 22.4484 17.5544 22.3717 17.7446 22.2175L24.8817 16.4605C25.2063 16.1992 25.3228 15.7755 25.1744 15.399C25.0269 15.0225 24.6455 14.7724 24.2185 14.7724H21.1598V10.4546C21.1598 9.13188 22.3027 8.05581 23.7087 8.05581C25.1148 8.05581 26.2577 9.13183 26.2577 10.4546V20.5294C26.2577 21.0593 26.7138 21.4889 27.2773 21.4889H33.3948C33.9583 21.4889 34.4143 21.0593 34.4143 20.5294V18.2356L42.1509 21.5518L23.1995 29.6751L4.24814 21.5514L11.6558 18.3757ZM2.80728 44.7966V23.0427L22.1793 31.3463V53.1003L2.80728 44.7966ZM24.2185 53.1007V31.3468L43.5905 23.0431V44.7971L24.2185 53.1007Z" fill="#589195"/>
</svg>
