<svg width="53" height="50" viewBox="0 0 53 50" fill="none" xmlns="http://www.w3.org/2000/svg">
<path d="M46.2937 34.0894C46.2937 33.6244 45.8932 33.2474 45.3991 33.2474C44.9051 33.2474 44.5045 33.6244 44.5045 34.0894C44.5045 34.6911 44.1634 35.247 43.6099 35.5476C43.0563 35.8483 42.3741 35.8483 41.8206 35.5476C41.2671 35.247 40.926 34.6911 40.926 34.0894C40.926 33.6244 40.5254 33.2474 40.0313 33.2474C39.5373 33.2474 39.1367 33.6244 39.1367 34.0894C39.1379 34.8369 39.4027 35.563 39.89 36.1535C40.3772 36.744 41.059 37.1654 41.8282 37.3518C41.8234 37.3867 41.821 37.4217 41.8206 37.457V38.2989C41.8206 38.7638 42.2212 39.1408 42.7152 39.1408C43.2093 39.1408 43.6099 38.7638 43.6099 38.2989V37.457C43.6095 37.4217 43.6071 37.3867 43.6023 37.3518C44.3715 37.1653 45.0532 36.744 45.5405 36.1535C46.0277 35.5631 46.2925 34.8369 46.2937 34.0894H46.2937Z" fill="#589195"/>
<path d="M43.6101 41.6667C43.6101 42.1317 43.2095 42.5087 42.7154 42.5087C42.2214 42.5087 41.8208 42.1317 41.8208 41.6667C41.8208 41.2018 42.2214 40.8248 42.7154 40.8248C43.2095 40.8248 43.6101 41.2018 43.6101 41.6667Z" fill="#589195"/>
<path d="M51.6615 47.5603H50.7669V45.0345C50.7585 42.6302 49.3966 40.4103 47.1884 39.2012V39.0806V39.081C49.3966 37.8719 50.7585 35.652 50.7669 33.2477V30.7219H51.6615C52.1556 30.7219 52.5561 30.345 52.5561 29.88C52.5561 29.4151 52.1556 29.0381 51.6615 29.0381H48.1573C49.5776 24.0539 49.1522 18.7629 46.952 14.0366C44.7518 9.31034 40.9077 5.42838 36.0518 3.03109C31.1957 0.633889 25.6179 -0.136248 20.2348 0.847398C14.8519 1.83066 9.98491 4.50901 6.434 8.44196C2.88381 12.3745 0.861741 17.3276 0.700401 22.4861C0.539051 27.6443 2.24847 32.7007 5.54694 36.8227C8.84541 40.9447 13.537 43.8881 18.8498 45.1675C24.1626 46.4469 29.7786 45.9865 34.7762 43.8622C34.7024 44.2489 34.6648 44.6417 34.6644 45.0349V47.5606H33.7698C33.2757 47.5606 32.8752 47.9376 32.8752 48.4026C32.8752 48.8675 33.2757 49.2445 33.7698 49.2445H51.6623C52.1564 49.2445 52.557 48.8675 52.557 48.4026C52.557 47.9376 52.1564 47.5606 51.6623 47.5606L51.6615 47.5603ZM24.8227 44.1926C12.4901 44.1926 2.45694 34.7503 2.45694 23.1447C2.45694 11.5391 12.4904 2.0968 24.8227 2.0968C37.1549 2.0968 47.1884 11.5391 47.1884 23.1447C47.19 25.139 46.8908 27.1232 46.2997 29.0381H44.4275C45.0737 27.1329 45.4016 25.1446 45.3992 23.1447C45.3992 12.4673 36.1685 3.78063 24.8227 3.78063C13.4769 3.78063 4.24625 12.4674 4.24625 23.1447C4.24625 33.822 13.4769 42.5088 24.8227 42.5088C29.3533 42.5065 33.7566 41.0993 37.3516 38.5048C37.6324 38.7179 37.9299 38.9104 38.2418 39.081V39.2016V39.2013C37.2082 39.7669 36.3407 40.5664 35.7185 41.5271C32.3872 43.2756 28.6365 44.193 24.8224 44.1926L24.8227 44.1926ZM33.7689 29.0381C33.2749 29.0381 32.8743 29.4151 32.8743 29.88C32.8743 30.345 33.2749 30.7219 33.7689 30.7219H34.6636V33.2477C34.6668 34.7042 35.1708 36.1203 36.1002 37.2851C33.0908 39.4079 29.4743 40.634 25.7174 40.8039V39.983C25.7174 39.5181 25.3168 39.1411 24.8228 39.1411C24.3287 39.1411 23.9281 39.5181 23.9281 39.983V40.8042C19.568 40.6118 15.4164 38.9907 12.1916 36.2218L12.8031 35.6464C13.1522 35.3179 13.1522 34.7845 12.8031 34.4557C12.4536 34.1272 11.8869 34.1272 11.5378 34.4557L10.9264 35.0311C7.98411 31.9968 6.26151 28.0898 6.05703 23.9861H6.92969C7.42373 23.9861 7.82432 23.6091 7.82432 23.1442C7.82432 22.6793 7.42373 22.3023 6.92969 22.3023H6.05703C6.26151 18.199 7.98411 14.2921 10.9264 11.2573L11.5378 11.8328C11.8869 12.1613 12.4536 12.1613 12.8031 11.8328C13.1522 11.5039 13.1522 10.9706 12.8031 10.6421L12.1916 10.0666C15.4159 7.29773 19.5676 5.67663 23.9281 5.48419V6.30544C23.9281 6.77037 24.3287 7.14735 24.8228 7.14735C25.3168 7.14735 25.7174 6.77037 25.7174 6.30544V5.48419C30.0775 5.67663 34.2291 7.29773 37.4539 10.0666L36.8424 10.6421C36.4934 10.9706 36.4934 11.5039 36.8424 11.8328C37.1919 12.1613 37.7586 12.1613 38.1077 11.8328L38.7191 11.2573C41.6614 14.2916 43.384 18.1987 43.5885 22.3023H42.7158C42.2218 22.3023 41.8212 22.6793 41.8212 23.1442C41.8212 23.6091 42.2218 23.9861 42.7158 23.9861H43.5897C43.5054 25.7094 43.152 27.4113 42.5405 29.0376L33.7689 29.0381ZM40.0313 47.5603C40.0313 46.7105 41.3609 45.8764 42.7152 45.8764C44.0695 45.8764 45.3991 46.7105 45.3991 47.5603H40.0313ZM42.7152 44.1926C40.5997 44.1926 38.2421 45.5757 38.2421 47.5603H36.4528V45.0345C36.456 44.0791 36.7456 43.144 37.2883 42.3362C37.8311 41.5289 38.6047 40.8817 39.5205 40.4694C39.8324 40.33 40.0313 40.0342 40.0313 39.7094V38.5729C40.0313 38.2478 39.8324 37.952 39.5205 37.8122C38.6047 37.4002 37.8312 36.753 37.2883 35.9457C36.7456 35.1384 36.456 34.2033 36.4528 33.2478V30.7221H48.9776V33.2478C48.9744 34.2033 48.6849 35.1383 48.1421 35.9461C47.5993 36.7534 46.8257 37.4006 45.9099 37.8129C45.598 37.9524 45.3991 38.2482 45.3991 38.5729V39.7094C45.3991 40.0346 45.598 40.3304 45.9099 40.4702C46.8257 40.8821 47.5993 41.5294 48.1421 42.3366C48.6849 43.144 48.9744 44.0791 48.9776 45.0345V47.5603H47.1884C47.1884 45.5757 44.8307 44.1926 42.7152 44.1926Z" fill="#589195"/>
<path d="M37.9805 20.8652C37.631 20.5363 37.0647 20.5363 36.7152 20.8652C36.3657 21.1941 36.3657 21.727 36.7152 22.0559L36.9772 22.3025H27.3532C27.0812 21.5842 26.4809 21.0193 25.7177 20.7633V15.074L25.9797 15.3206C26.3291 15.6494 26.8955 15.6494 27.2449 15.3206C27.5944 14.9917 27.5944 14.4587 27.2449 14.1299L25.4557 12.446C25.2879 12.2882 25.0603 12.1995 24.823 12.1995C24.5858 12.1995 24.3582 12.2882 24.1904 12.446L22.4012 14.1299C22.0517 14.4587 22.0517 14.9917 22.4012 15.3206C22.7506 15.6494 23.317 15.6494 23.6664 15.3206L23.9284 15.074V20.7637V20.7633C23.0594 21.0524 22.4088 21.7405 22.2051 22.5866C22.0014 23.4326 22.273 24.3174 22.9248 24.9308C23.5766 25.5442 24.5167 25.7998 25.4158 25.6081C26.3148 25.4164 27.046 24.8041 27.3532 23.9863H36.9776L36.7156 24.2329H36.7152C36.3658 24.5617 36.3658 25.0947 36.7152 25.4236C37.0647 25.7524 37.631 25.7524 37.9805 25.4236L39.7698 23.7397C39.9375 23.5819 40.0317 23.3676 40.0317 23.1444C40.0317 22.9211 39.9375 22.7069 39.7698 22.549L37.9805 20.8652ZM24.8228 23.9863C24.4609 23.9863 24.1346 23.7811 23.9965 23.4665C23.8579 23.1519 23.9342 22.79 24.1902 22.5491C24.4462 22.3081 24.8308 22.2364 25.1651 22.3668C25.4994 22.4968 25.7174 22.8039 25.7174 23.1444C25.717 23.6093 25.3168 23.986 24.8228 23.9863Z" fill="#589195"/>
</svg>
