<svg display="none" xmlns="http://www.w3.org/2000/svg">

	<symbol id="search" viewBox="0 0 23 23">
		<path
			d="M21.8496 21.6028L15.8073 15.5683C17.2391 13.9668 18.0982 11.8791 18.0982 9.59108C18.0982 4.61475 14.0319 0.553711 9.04912 0.553711C4.06638 0.553711 0 4.61481 0 9.59108C0 14.5673 4.06638 18.6284 9.04912 18.6284C11.3401 18.6284 13.4305 17.7704 15.0055 16.3692L21.0764 22.4037C21.1909 22.518 21.3341 22.5752 21.4773 22.5752C21.6206 22.5752 21.7638 22.518 21.8497 22.4037C22.0788 22.1748 22.0788 21.8315 21.8497 21.6027L21.8496 21.6028ZM9.04907 17.4846C4.69628 17.4846 1.14541 13.9383 1.14541 9.59123C1.14541 5.24409 4.69638 1.69783 9.04907 1.69783C13.4019 1.69783 16.9527 5.24419 16.9527 9.59123C16.9529 13.9382 13.4019 17.4846 9.04907 17.4846Z" />
	</symbol>

	<symbol id="user" viewBox="0 0 21 22">
		<path
			d="M10.6179 10.142C11.8895 10.1423 13.109 9.63719 14.0081 8.73831C14.9075 7.8392 15.4125 6.61977 15.4128 5.34841C15.4128 4.07679 14.9077 2.85736 14.0085 1.95797C13.1097 1.05886 11.8903 0.553711 10.6187 0.553711C9.34702 0.553711 8.12759 1.05855 7.22848 1.9577C6.32937 2.85681 5.82422 4.07624 5.82422 5.34787C5.82554 6.61875 6.33119 7.83737 7.22977 8.73621C8.12834 9.63478 9.34695 10.1405 10.6178 10.142H10.6179ZM10.6179 1.74212C11.5746 1.74186 12.4919 2.12182 13.1684 2.79824C13.8447 3.47436 14.2247 4.39181 14.2249 5.34841C14.2249 6.30481 13.845 7.22219 13.1686 7.89859C12.4922 8.57498 11.5748 8.95491 10.6184 8.95491C9.66177 8.95465 8.7444 8.57469 8.06827 7.89832C7.39188 7.22193 7.01195 6.30454 7.01215 5.34787C7.01348 4.39201 7.3937 3.47566 8.06956 2.79952C8.74568 2.12366 9.66204 1.74341 10.6179 1.74212Z" />
		<path
			d="M10.6181 11.0544C8.04806 11.0574 5.58429 12.0795 3.7672 13.8968C1.9499 15.7139 0.927723 18.1779 0.924805 20.7478V21.3417H20.3121V20.7478C20.3092 18.1777 19.2868 15.7137 17.4695 13.8968C15.6522 12.0795 13.1881 11.0574 10.6179 11.0544H10.6181ZM2.13337 20.1542C2.33462 17.2624 3.99445 14.6725 6.5375 13.2815C9.08055 11.8908 12.1568 11.8908 14.6998 13.2815C17.2429 14.6725 18.9027 17.2624 19.1037 20.1542H2.13337Z" />
	</symbol>

	<symbol id="basket" viewBox="0 0 27 23">
		<path
			d="M7.02464 17.0548L22.8933 17.0595C23.6901 17.0595 24.3838 16.4931 24.5428 15.7126L26.7086 5.06638C26.7808 4.7109 26.6911 4.34661 26.4619 4.06639C26.2335 3.78595 25.8944 3.6251 25.5322 3.6251H6.39832L6.24886 2.89586C5.97338 1.53928 4.76803 0.553711 3.38266 0.553711H1.20242C0.936618 0.553711 0.720703 0.769626 0.720703 1.03543C0.720703 1.30123 0.936618 1.51715 1.20242 1.51715H3.38266C4.31147 1.51715 5.11965 2.17801 5.30568 3.08744L7.95233 16.0911H7.02456C5.72778 16.0911 4.67273 17.1462 4.67273 18.4429C4.67273 19.7397 5.72778 20.7948 7.02456 20.7948H8.48222C8.7048 21.8111 9.60955 22.5752 10.6915 22.5752C11.7734 22.5752 12.6781 21.8111 12.9007 20.7948H19.7389C19.9615 21.8111 20.8663 22.5752 21.9482 22.5752C23.0301 22.5752 23.9348 21.8111 24.1574 20.7948H25.6903C25.9561 20.7948 26.1721 20.5789 26.1721 20.3131C26.1721 20.0473 25.9561 19.8313 25.6903 19.8313H24.1585C23.9379 18.8131 23.0323 18.0471 21.9484 18.0471C20.8645 18.0471 19.9589 18.8131 19.7383 19.8313H12.9017C12.6811 18.8131 11.7744 18.0471 10.6916 18.0471C9.60856 18.0471 8.70298 18.8131 8.48145 19.8313L7.02423 19.8311C6.25822 19.8311 5.63584 19.2087 5.63584 18.4427C5.63584 17.6769 6.25926 17.0546 7.02423 17.0546L7.02464 17.0548ZM6.59388 4.58901H25.5334C25.7059 4.59675 25.7917 4.70665 25.7646 4.87417L23.5988 15.521C23.5313 15.8554 23.2347 16.0971 22.8945 16.0971L8.93621 16.0924L6.59388 4.58901ZM21.9489 19.012C22.6657 19.012 23.2495 19.5948 23.2495 20.3126C23.2495 21.0304 22.6667 21.6132 21.9489 21.6132C21.231 21.6132 20.6482 21.0304 20.6482 20.3126C20.6482 19.5948 21.2321 19.012 21.9489 19.012ZM10.6921 19.012C11.4099 19.012 11.9927 19.5948 11.9927 20.3126C11.9927 21.0304 11.4099 21.6132 10.6921 21.6132C9.97528 21.6132 9.39144 21.0304 9.39144 20.3126C9.39144 19.5948 9.97423 19.012 10.6921 19.012Z"/>
		<path
			d="M12.4309 10.8245H20.226C20.4918 10.8245 20.7077 10.6086 20.7077 10.3428C20.7077 10.077 20.4918 9.86108 20.226 9.86108H12.4309C12.1651 9.86108 11.9492 10.077 11.9492 10.3428C11.9492 10.6086 12.1641 10.8245 12.4309 10.8245Z"/>
	</symbol>

</svg>