<svg display="none" xmlns="http://www.w3.org/2000/svg">

	<symbol id="search" viewBox="0 0 23 23">
		<path
			d="M21.8496 21.6028L15.8073 15.5683C17.2391 13.9668 18.0982 11.8791 18.0982 9.59108C18.0982 4.61475 14.0319 0.553711 9.04912 0.553711C4.06638 0.553711 0 4.61481 0 9.59108C0 14.5673 4.06638 18.6284 9.04912 18.6284C11.3401 18.6284 13.4305 17.7704 15.0055 16.3692L21.0764 22.4037C21.1909 22.518 21.3341 22.5752 21.4773 22.5752C21.6206 22.5752 21.7638 22.518 21.8497 22.4037C22.0788 22.1748 22.0788 21.8315 21.8497 21.6027L21.8496 21.6028ZM9.04907 17.4846C4.69628 17.4846 1.14541 13.9383 1.14541 9.59123C1.14541 5.24409 4.69638 1.69783 9.04907 1.69783C13.4019 1.69783 16.9527 5.24419 16.9527 9.59123C16.9529 13.9382 13.4019 17.4846 9.04907 17.4846Z" />
	</symbol>

	<symbol id="user" viewBox="0 0 21 22">
		<path
			d="M10.6179 10.142C11.8895 10.1423 13.109 9.63719 14.0081 8.73831C14.9075 7.8392 15.4125 6.61977 15.4128 5.34841C15.4128 4.07679 14.9077 2.85736 14.0085 1.95797C13.1097 1.05886 11.8903 0.553711 10.6187 0.553711C9.34702 0.553711 8.12759 1.05855 7.22848 1.9577C6.32937 2.85681 5.82422 4.07624 5.82422 5.34787C5.82554 6.61875 6.33119 7.83737 7.22977 8.73621C8.12834 9.63478 9.34695 10.1405 10.6178 10.142H10.6179ZM10.6179 1.74212C11.5746 1.74186 12.4919 2.12182 13.1684 2.79824C13.8447 3.47436 14.2247 4.39181 14.2249 5.34841C14.2249 6.30481 13.845 7.22219 13.1686 7.89859C12.4922 8.57498 11.5748 8.95491 10.6184 8.95491C9.66177 8.95465 8.7444 8.57469 8.06827 7.89832C7.39188 7.22193 7.01195 6.30454 7.01215 5.34787C7.01348 4.39201 7.3937 3.47566 8.06956 2.79952C8.74568 2.12366 9.66204 1.74341 10.6179 1.74212Z" />
		<path
			d="M10.6181 11.0544C8.04806 11.0574 5.58429 12.0795 3.7672 13.8968C1.9499 15.7139 0.927723 18.1779 0.924805 20.7478V21.3417H20.3121V20.7478C20.3092 18.1777 19.2868 15.7137 17.4695 13.8968C15.6522 12.0795 13.1881 11.0574 10.6179 11.0544H10.6181ZM2.13337 20.1542C2.33462 17.2624 3.99445 14.6725 6.5375 13.2815C9.08055 11.8908 12.1568 11.8908 14.6998 13.2815C17.2429 14.6725 18.9027 17.2624 19.1037 20.1542H2.13337Z" />
	</symbol>

	<symbol id="basket" viewBox="0 0 27 23">
		<path
			d="M7.02464 17.0548L22.8933 17.0595C23.6901 17.0595 24.3838 16.4931 24.5428 15.7126L26.7086 5.06638C26.7808 4.7109 26.6911 4.34661 26.4619 4.06639C26.2335 3.78595 25.8944 3.6251 25.5322 3.6251H6.39832L6.24886 2.89586C5.97338 1.53928 4.76803 0.553711 3.38266 0.553711H1.20242C0.936618 0.553711 0.720703 0.769626 0.720703 1.03543C0.720703 1.30123 0.936618 1.51715 1.20242 1.51715H3.38266C4.31147 1.51715 5.11965 2.17801 5.30568 3.08744L7.95233 16.0911H7.02456C5.72778 16.0911 4.67273 17.1462 4.67273 18.4429C4.67273 19.7397 5.72778 20.7948 7.02456 20.7948H8.48222C8.7048 21.8111 9.60955 22.5752 10.6915 22.5752C11.7734 22.5752 12.6781 21.8111 12.9007 20.7948H19.7389C19.9615 21.8111 20.8663 22.5752 21.9482 22.5752C23.0301 22.5752 23.9348 21.8111 24.1574 20.7948H25.6903C25.9561 20.7948 26.1721 20.5789 26.1721 20.3131C26.1721 20.0473 25.9561 19.8313 25.6903 19.8313H24.1585C23.9379 18.8131 23.0323 18.0471 21.9484 18.0471C20.8645 18.0471 19.9589 18.8131 19.7383 19.8313H12.9017C12.6811 18.8131 11.7744 18.0471 10.6916 18.0471C9.60856 18.0471 8.70298 18.8131 8.48145 19.8313L7.02423 19.8311C6.25822 19.8311 5.63584 19.2087 5.63584 18.4427C5.63584 17.6769 6.25926 17.0546 7.02423 17.0546L7.02464 17.0548ZM6.59388 4.58901H25.5334C25.7059 4.59675 25.7917 4.70665 25.7646 4.87417L23.5988 15.521C23.5313 15.8554 23.2347 16.0971 22.8945 16.0971L8.93621 16.0924L6.59388 4.58901ZM21.9489 19.012C22.6657 19.012 23.2495 19.5948 23.2495 20.3126C23.2495 21.0304 22.6667 21.6132 21.9489 21.6132C21.231 21.6132 20.6482 21.0304 20.6482 20.3126C20.6482 19.5948 21.2321 19.012 21.9489 19.012ZM10.6921 19.012C11.4099 19.012 11.9927 19.5948 11.9927 20.3126C11.9927 21.0304 11.4099 21.6132 10.6921 21.6132C9.97528 21.6132 9.39144 21.0304 9.39144 20.3126C9.39144 19.5948 9.97423 19.012 10.6921 19.012Z" />
		<path
			d="M12.4309 10.8245H20.226C20.4918 10.8245 20.7077 10.6086 20.7077 10.3428C20.7077 10.077 20.4918 9.86108 20.226 9.86108H12.4309C12.1651 9.86108 11.9492 10.077 11.9492 10.3428C11.9492 10.6086 12.1641 10.8245 12.4309 10.8245Z" />
	</symbol>

	<symbol id="mail" viewBox="0 0 16 11">
		<path
			d="M1.70153 1.10695C1.89153 1.03006 2.09445 0.990228 2.29942 0.989502H14.1966C14.4015 0.990226 14.6045 1.03006 14.7945 1.10683L8.5823 5.98776C8.48706 6.06284 8.36937 6.10376 8.24806 6.10376C8.12687 6.10376 8.00906 6.06308 7.91383 5.988L1.70153 1.10695ZM9.25051 6.83829C8.96492 7.06354 8.61184 7.18594 8.24813 7.18606C7.88454 7.18606 7.53148 7.06366 7.24574 6.83854L0.882452 1.83834C0.74967 2.07468 0.679057 2.34086 0.677246 2.61184V9.1012C0.677729 9.53129 0.848775 9.94376 1.15298 10.2478C1.45704 10.552 1.86953 10.723 2.29959 10.7235H14.1968C14.6268 10.7231 15.0393 10.552 15.3434 10.2478C15.6475 9.94374 15.8186 9.53126 15.8191 9.1012V2.61184C15.8173 2.34072 15.7467 2.07467 15.6139 1.83834L9.25051 6.83829Z" />
	</symbol>

	<symbol id="fb" viewBox="0 0 19 19">
		<path
			d="M9.79894 0.674316C4.81128 0.674316 0.76709 4.73938 0.76709 9.75278C0.76709 14.3042 4.10297 18.0627 8.44868 18.7192V12.1586H6.21399V9.77234H8.44868V8.1843C8.44868 5.55539 9.72287 4.40173 11.8968 4.40173C12.9375 4.40173 13.4888 4.47959 13.749 4.51451V6.59732H12.2664C11.3437 6.59732 11.0214 7.47723 11.0214 8.46818V9.77234H13.7257L13.3592 12.1586H11.0214V18.738C15.4296 18.1374 18.8308 14.3489 18.8308 9.75278C18.8308 4.73938 14.787 0.674316 9.79894 0.674316Z" />
	</symbol>

	<symbol id="fb2" viewBox="0 0 10 18">
		<path
			d="M9.5 3H6.5C5.94772 3 5.5 3.44772 5.5 4V7H9.5C9.61374 6.99748 9.7216 7.05039 9.78923 7.14188C9.85685 7.23336 9.87578 7.35201 9.84 7.46L9.1 9.66C9.03181 9.86192 8.84312 9.99842 8.63 10H5.5V17.5C5.5 17.7761 5.27614 18 5 18H2.5C2.22386 18 2 17.7761 2 17.5V10H0.5C0.223858 10 0 9.77614 0 9.5V7.5C0 7.22386 0.223858 7 0.5 7H2V4C2 1.79086 3.79086 0 6 0H9.5C9.77614 0 10 0.223858 10 0.5V2.5C10 2.77614 9.77614 3 9.5 3Z"/>
	</symbol>


	<symbol id="instagram" viewBox="0 0 18 16">
		<path
			d="M5.87272 0.681396C3.12979 0.681396 0.897949 2.65183 0.897949 5.07267V11.3444C0.897949 13.7649 3.1311 15.7345 5.87472 15.7345H12.9827C15.726 15.7345 17.9581 13.7641 17.9581 11.3432V5.0709C17.9581 2.65067 15.725 0.681396 12.9813 0.681396H5.87272ZM14.5461 3.08989C14.9228 3.08989 15.2285 3.35964 15.2285 3.69201C15.2285 4.02439 14.9228 4.29414 14.5461 4.29414C14.1694 4.29414 13.8637 4.02439 13.8637 3.69201C13.8637 3.35964 14.1694 3.08989 14.5461 3.08989ZM9.42803 4.29414C11.8745 4.29414 13.8637 6.04933 13.8637 8.20794C13.8637 10.3666 11.8741 12.1217 9.42803 12.1217C6.98161 12.1217 4.99239 10.3663 4.99239 8.20794C4.99239 6.04963 6.98161 4.29414 9.42803 4.29414ZM9.42803 5.49839C7.73191 5.49839 6.3572 6.71136 6.3572 8.20794C6.3572 9.70452 7.73191 10.9175 9.42803 10.9175C11.1242 10.9175 12.4989 9.70452 12.4989 8.20794C12.4989 6.71136 11.1242 5.49839 9.42803 5.49839Z" />
	</symbol>

	<symbol id="twitter" viewBox="0 0 21 18">
		<path
			d="M20.1142 2.69516C19.3765 3.04007 18.5833 3.27001 17.7465 3.37868C18.5973 2.84573 19.2518 1.99569 19.5589 0.991367C18.7629 1.48389 17.8811 1.84549 16.9427 2.03612C16.1934 1.19794 15.1246 0.677979 13.9405 0.677979C11.6659 0.677979 9.82246 2.60652 9.82246 4.98419C9.82246 5.32057 9.85972 5.64842 9.93001 5.96663C6.5082 5.78527 3.47335 4.06887 1.44297 1.46386C1.08624 2.10028 0.885554 2.84573 0.885554 3.63235C0.885554 5.12734 1.61097 6.4432 2.71701 7.2187C2.04185 7.19682 1.40642 6.99877 0.850056 6.68093C0.850056 6.69391 0.850056 6.7132 0.850056 6.73137C0.850056 8.8205 2.26995 10.5599 4.15202 10.956C3.80794 11.0554 3.44453 11.1106 3.06987 11.1106C2.80382 11.1106 2.54479 11.0787 2.29385 11.0313C2.81788 12.7384 4.33829 13.9864 6.13952 14.0231C4.73017 15.1762 2.9553 15.8667 1.02508 15.8667C0.691548 15.8667 0.365745 15.8467 0.043457 15.8055C1.86648 17.0238 4.03182 17.7381 6.35602 17.7381C13.9296 17.7381 18.0726 11.1752 18.0726 5.4819C18.0726 5.29535 18.067 5.10954 18.0586 4.92596C18.8673 4.32366 19.5639 3.56337 20.1142 2.69516Z" />
	</symbol>

	<symbol id="location" viewBox="0 0 15 17">
		<path
			d="M12.7841 2.6045C11.5329 1.06928 9.61932 0.198486 7.55852 0.198486C5.49771 0.198486 3.58411 1.06928 2.33291 2.6045C0.542024 4.80428 0.542024 7.8519 2.33291 10.0517L7.55852 16.4219L12.7841 10.0517C14.575 7.8519 14.575 4.80428 12.7841 2.6045ZM7.55852 2.97108C9.44763 2.97108 10.9932 4.41469 10.9932 6.1791C10.9932 7.94351 9.44759 9.38712 7.55852 9.38712C5.66945 9.38712 4.12385 7.94351 4.12385 6.1791C4.12385 4.41469 5.66945 2.97108 7.55852 2.97108Z" />
	</symbol>

	<symbol id="phone" viewBox="0 0 14 13">
		<path
			d="M13.6595 9.49255C13.068 8.33925 12.0594 7.58683 10.6182 7.25101C10.4017 7.20057 10.1717 7.25066 9.99897 7.38255L8.80211 8.29594C8.56842 8.47432 8.23812 8.49725 7.98128 8.34928C6.71529 7.61987 5.69085 6.66306 4.90985 5.48055C4.75143 5.24066 4.77598 4.93215 4.96696 4.71389L5.94489 3.59602C6.0861 3.4346 6.13972 3.21984 6.08573 3.01766C5.72615 1.67167 4.92057 0.729508 3.6858 0.177041C3.48655 0.0879419 3.25164 0.0928615 3.0568 0.190045C2.43589 0.499796 1.84189 0.850217 1.27912 1.2443C1.06358 1.39517 0.954922 1.64473 0.999694 1.89277C1.40423 4.13072 2.69894 6.48414 4.8028 8.44927C6.90665 10.4143 9.42644 11.6235 11.8226 12.0014C12.0881 12.0432 12.3552 11.9417 12.5168 11.7404C12.9388 11.2148 13.314 10.66 13.6456 10.08C13.7495 9.89797 13.7549 9.67847 13.6594 9.49246L13.6595 9.49255Z" />
	</symbol>


	<symbol id="arrow-right" viewBox="0 0 6 10">
		<path
			d="M0.0739384 0.960613C0.0266174 0.913679 0 0.84979 0 0.78314C0 0.716491 0.0266174 0.652602 0.0739384 0.605667L0.603858 0.0757478C0.649218 0.0274165 0.712548 0 0.778831 0C0.845114 0 0.908445 0.0274165 0.953805 0.0757478L5.54811 4.67005C5.61844 4.7403 5.658 4.8356 5.65809 4.93501V5.06499C5.658 5.1644 5.61844 5.2597 5.54811 5.32995L0.953805 9.92425C0.908445 9.97258 0.845114 10 0.778831 10C0.712548 10 0.649218 9.97258 0.603858 9.92425L0.0739384 9.39433C0.0266174 9.3474 0 9.28351 0 9.21686C0 9.15021 0.0266174 9.08632 0.0739384 9.03939L4.11333 5L0.0739384 0.960613Z" />
	</symbol>

</svg>